<svg xmlns="http://www.w3.org/2000/svg" width="16" height="15.6" id="icon"><path d="M13.3 13.59c-.6-.04-1.291-.08-2.034-.1a6.868 6.868 0 001.672-2.25 1.56 1.56 0 00.751.43 1.669 1.669 0 00.382.05 1.557 1.557 0 00.832-.24 1.616 1.616 0 00-1.223-2.95 8.781 8.781 0 00.048-.88.559.559 0 00-.558-.56H2.824a.559.559 0 00-.559.56 7.728 7.728 0 002.459 5.84c-.742.02-1.43.06-2.031.1-2.092.15-2.7.29-2.7.93s.609.79 2.7.94c1.419.1 3.3.15 5.3.15s3.885-.05 5.3-.15c2.093-.15 2.7-.29 2.7-.94s-.6-.78-2.693-.93zm.268-4.29a.012.012 0 01.013-.01.941.941 0 011.4 1.03.939.939 0 01-.423.58.923.923 0 01-.707.11.941.941 0 01-.578-.42.584.584 0 00-.04-.05 7.95 7.95 0 00.335-1.24zM3.403 8.22h9.187c-.219 3.04-2.2 5.42-4.593 5.42s-4.374-2.38-4.594-5.42zM6.96 5.94h.038a.457.457 0 00.355-.18.452.452 0 00.067-.43 3.175 3.175 0 01.123-2.29A2.937 2.937 0 008.115.67 1.057 1.057 0 007.45 0a.451.451 0 00-.274.86.216.216 0 01.1.13 2.058 2.058 0 01-.484 1.56l-.022.03a4.4 4.4 0 01-.146.24c-.681 1.05-.886 1.88-.607 2.46a1.207 1.207 0 00.943.66zm2.386.08h.031a.429.429 0 00.333-.16.438.438 0 00.064-.41 1.789 1.789 0 01.063-1.28 1.9 1.9 0 00.363-1.58.789.789 0 00-.505-.5.427.427 0 00-.523.28.44.44 0 00.034.33.4.4 0 00.249.2.133.133 0 00-.046-.01 1.153 1.153 0 01-.281.82l-.026.04c-.024.04-.05.08-.078.13a1.743 1.743 0 00-.382 1.66.877.877 0 00.704.48z"/></svg>