<svg xmlns="http://www.w3.org/2000/svg" width="15.969" height="15" id="icon"><path d="M15.921.03a.157.157 0 00-.173-.02L.074 7.94a.171.171 0 00-.088.16.169.169 0 00.112.14L5.059 9.8a.149.149 0 00.156-.03l7.545-6.39-5.795 6.79a.169.169 0 00-.032.15.178.178 0 00.108.11l5.822 1.76h.047a.115.115 0 00.08-.02.161.161 0 00.077-.1L15.978.19a.151.151 0 00-.057-.16zM8.745 12.17l-1.609-.49a.147.147 0 00-.143.02.161.161 0 00-.066.13v3.01a.156.156 0 00.117.15c.014 0 .029.01.045.01a.162.162 0 00.136-.08l1.609-2.52a.15.15 0 00-.089-.23z"/></svg>